<mxfile host="app.diagrams.net" agent="Mozilla/5.0 (Windows NT 10.0; Win64; x64) AppleWebKit/537.36 (KHTML, like Gecko) Chrome/129.0.0.0 Safari/537.36" version="24.7.17">
  <diagram name="Page-1" id="3RE9-gn1Cyuju5aF_005">
    <mxGraphModel dx="1032" dy="1097" grid="1" gridSize="10" guides="1" tooltips="1" connect="1" arrows="1" fold="1" page="1" pageScale="1" pageWidth="850" pageHeight="1100" math="0" shadow="0">
      <root>
        <mxCell id="0" />
        <mxCell id="1" parent="0" />
        <mxCell id="XJt3TLhqmLDu971tFtdN-3" style="edgeStyle=orthogonalEdgeStyle;rounded=0;orthogonalLoop=1;jettySize=auto;html=1;exitX=1;exitY=0.5;exitDx=0;exitDy=0;entryX=0;entryY=0.5;entryDx=0;entryDy=0;" edge="1" parent="1" source="XJt3TLhqmLDu971tFtdN-1" target="XJt3TLhqmLDu971tFtdN-2">
          <mxGeometry relative="1" as="geometry" />
        </mxCell>
        <mxCell id="XJt3TLhqmLDu971tFtdN-1" value="user" style="rounded=0;whiteSpace=wrap;html=1;" vertex="1" parent="1">
          <mxGeometry x="90" y="30" width="120" height="60" as="geometry" />
        </mxCell>
        <mxCell id="XJt3TLhqmLDu971tFtdN-5" style="edgeStyle=orthogonalEdgeStyle;rounded=0;orthogonalLoop=1;jettySize=auto;html=1;exitX=1;exitY=0.5;exitDx=0;exitDy=0;entryX=0;entryY=0.5;entryDx=0;entryDy=0;" edge="1" parent="1" source="XJt3TLhqmLDu971tFtdN-2" target="XJt3TLhqmLDu971tFtdN-4">
          <mxGeometry relative="1" as="geometry" />
        </mxCell>
        <mxCell id="XJt3TLhqmLDu971tFtdN-2" value="main()" style="ellipse;whiteSpace=wrap;html=1;" vertex="1" parent="1">
          <mxGeometry x="280" y="30" width="120" height="80" as="geometry" />
        </mxCell>
        <mxCell id="XJt3TLhqmLDu971tFtdN-7" style="edgeStyle=orthogonalEdgeStyle;rounded=0;orthogonalLoop=1;jettySize=auto;html=1;exitX=1;exitY=0.5;exitDx=0;exitDy=0;entryX=0;entryY=0.5;entryDx=0;entryDy=0;" edge="1" parent="1" source="XJt3TLhqmLDu971tFtdN-4" target="XJt3TLhqmLDu971tFtdN-6">
          <mxGeometry relative="1" as="geometry" />
        </mxCell>
        <mxCell id="XJt3TLhqmLDu971tFtdN-9" style="edgeStyle=orthogonalEdgeStyle;rounded=0;orthogonalLoop=1;jettySize=auto;html=1;exitX=0.5;exitY=1;exitDx=0;exitDy=0;entryX=1;entryY=0.5;entryDx=0;entryDy=0;" edge="1" parent="1" source="XJt3TLhqmLDu971tFtdN-4" target="XJt3TLhqmLDu971tFtdN-8">
          <mxGeometry relative="1" as="geometry" />
        </mxCell>
        <mxCell id="XJt3TLhqmLDu971tFtdN-4" value="load_board()" style="ellipse;whiteSpace=wrap;html=1;" vertex="1" parent="1">
          <mxGeometry x="460" y="30" width="120" height="80" as="geometry" />
        </mxCell>
        <mxCell id="XJt3TLhqmLDu971tFtdN-6" value="display_board()" style="ellipse;whiteSpace=wrap;html=1;" vertex="1" parent="1">
          <mxGeometry x="630" y="30" width="120" height="80" as="geometry" />
        </mxCell>
        <mxCell id="XJt3TLhqmLDu971tFtdN-12" style="edgeStyle=orthogonalEdgeStyle;rounded=0;orthogonalLoop=1;jettySize=auto;html=1;exitX=0.5;exitY=1;exitDx=0;exitDy=0;entryX=0.5;entryY=0;entryDx=0;entryDy=0;" edge="1" parent="1" source="XJt3TLhqmLDu971tFtdN-8" target="XJt3TLhqmLDu971tFtdN-11">
          <mxGeometry relative="1" as="geometry" />
        </mxCell>
        <mxCell id="XJt3TLhqmLDu971tFtdN-8" value="prompt_for_move()" style="ellipse;whiteSpace=wrap;html=1;" vertex="1" parent="1">
          <mxGeometry x="280" y="170" width="120" height="80" as="geometry" />
        </mxCell>
        <mxCell id="XJt3TLhqmLDu971tFtdN-14" style="edgeStyle=orthogonalEdgeStyle;rounded=0;orthogonalLoop=1;jettySize=auto;html=1;exitX=1;exitY=0.5;exitDx=0;exitDy=0;entryX=0;entryY=0.5;entryDx=0;entryDy=0;" edge="1" parent="1" source="XJt3TLhqmLDu971tFtdN-11" target="XJt3TLhqmLDu971tFtdN-13">
          <mxGeometry relative="1" as="geometry" />
        </mxCell>
        <mxCell id="XJt3TLhqmLDu971tFtdN-11" value="convert_coords()" style="ellipse;whiteSpace=wrap;html=1;" vertex="1" parent="1">
          <mxGeometry x="280" y="310" width="120" height="80" as="geometry" />
        </mxCell>
        <mxCell id="XJt3TLhqmLDu971tFtdN-16" style="edgeStyle=orthogonalEdgeStyle;rounded=0;orthogonalLoop=1;jettySize=auto;html=1;exitX=0.5;exitY=1;exitDx=0;exitDy=0;entryX=0.5;entryY=0;entryDx=0;entryDy=0;" edge="1" parent="1" source="XJt3TLhqmLDu971tFtdN-13" target="XJt3TLhqmLDu971tFtdN-15">
          <mxGeometry relative="1" as="geometry" />
        </mxCell>
        <mxCell id="XJt3TLhqmLDu971tFtdN-13" value="validate_move()" style="ellipse;whiteSpace=wrap;html=1;" vertex="1" parent="1">
          <mxGeometry x="460" y="310" width="120" height="80" as="geometry" />
        </mxCell>
        <mxCell id="XJt3TLhqmLDu971tFtdN-15" value="save_board()" style="ellipse;whiteSpace=wrap;html=1;" vertex="1" parent="1">
          <mxGeometry x="460" y="450" width="120" height="80" as="geometry" />
        </mxCell>
        <mxCell id="XJt3TLhqmLDu971tFtdN-17" value="game file" style="shape=internalStorage;whiteSpace=wrap;html=1;backgroundOutline=1;" vertex="1" parent="1">
          <mxGeometry x="320" y="470" width="80" height="80" as="geometry" />
        </mxCell>
        <mxCell id="XJt3TLhqmLDu971tFtdN-18" style="edgeStyle=orthogonalEdgeStyle;rounded=0;orthogonalLoop=1;jettySize=auto;html=1;exitX=0;exitY=0.5;exitDx=0;exitDy=0;entryX=1.025;entryY=0.65;entryDx=0;entryDy=0;entryPerimeter=0;" edge="1" parent="1" source="XJt3TLhqmLDu971tFtdN-15" target="XJt3TLhqmLDu971tFtdN-17">
          <mxGeometry relative="1" as="geometry" />
        </mxCell>
      </root>
    </mxGraphModel>
  </diagram>
</mxfile>
